inDegrees=yes
name=ik_lifting_orientations
DataType=double
version=3
OpenSimVersion=4.5-2024-01-10-34fd6af
endheader
time	pelvis_tilt	pelvis_list	pelvis_rotation	pelvis_tx	pelvis_ty	pelvis_tz	hip_flexion_r	hip_adduction_r	hip_rotation_r	knee_angle_r	knee_angle_r_beta	ankle_angle_r	subtalar_angle_r	mtp_angle_r	hip_flexion_l	hip_adduction_l	hip_rotation_l	knee_angle_l	knee_angle_l_beta	ankle_angle_l	subtalar_angle_l	mtp_angle_l	lumbar_extension	lumbar_bending	lumbar_rotation	arm_flex_r	arm_add_r	arm_rot_r	elbow_flex_r	pro_sup_r	wrist_flex_r	wrist_dev_r	arm_flex_l	arm_add_l	arm_rot_l	elbow_flex_l	pro_sup_l	wrist_flex_l	wrist_dev_l
1.57	-4.003508568491498	-3.65372960757132	-94.98424820937805	0	0.9399999998679526	0	44.99712483658047	-10.04260056306908	0	59.99858170600165	1.047172797296565	-5.008618722293035	0	0	44.99712483658047	-10.04260056306908	0	59.99858170600165	1.047172797296565	-5.008618722293035	0	0	-3.715870581971428	3.464363589017942	10.1622831499712	11.24960581951477	-28.70339799762248	9.176249359953729	36.53267323131406	1.073614000319097	0	0	0	-12.53735747728268	0	88.94754356776259	1.073614000319097	0	0
1.58	-3.479200121085416	-3.185484366602994	-94.98406248686148	0	0.9399999998679526	0	44.99712618642839	-10.04253045945735	0	59.99858227880579	1.047172807293884	-5.008600211137847	0	0	44.99712618642839	-10.04253045945735	0	59.99858227880579	1.047172807293884	-5.008600211137847	0	0	-2.714711676042622	2.606372540320464	9.286876787440042	12.0332049978667	-29.31026447963452	10.54911490159746	37.12259586648537	1.073263630984053	0	0	0	-12.53794848583117	0	88.94788697364157	1.073263630984053	0	0
1.59	-2.946947562564208	-2.702861272554697	-94.97769734538839	0	0.9399999998679526	0	44.99713963239125	-10.042039698524	0	59.99858944576108	1.047172932380851	-5.008480440807246	0	0	44.99713963239125	-10.042039698524	0	59.99858944576108	1.047172932380851	-5.008480440807246	0	0	-1.688221692664907	1.719995698448029	8.28781009099049	13.14695755450709	-30.44646413670172	12.25057644333461	38.58920945979092	1.069435889169324	0	0	0	-12.54489659141872	0	88.95163864718648	1.069435889169324	0	0
1.6	-2.459033823827178	-2.254036739194454	-94.98712937552091	0	0.9399999998679526	0	44.99715154462238	-10.04159545294059	0	59.9985957115877	1.047173041740155	-5.008371431907093	0	0	44.99715154462238	-10.04159545294059	0	59.9985957115877	1.047173041740155	-5.008371431907093	0	0	-0.7648146309309212	0.881716857396824	7.409588740020951	14.75895263389439	-31.37815235451033	14.1780445726864	39.25882550871633	1.066061022009463	0	0	0	-12.55100074616969	0	88.95494644571673	1.066061022009463	0	0
1.61	-2.007379754865024	-1.83145501752911	-94.83193236336615	0	0.9399999998679526	0	44.99716194393145	-10.04121503689651	0	59.99860121960682	1.047173137873224	-5.008278608349878	0	0	44.99716194393145	-10.04121503689651	0	59.99860121960682	1.047173137873224	-5.008278608349878	0	0	0.1672815400951072	0.07941070155328145	6.537761073305619	16.29072992044859	-32.24200266961459	15.71957390859772	39.88936202364525	1.063103429919119	0	0	0	-12.55636502723897	0	88.95784526187151	1.063103429919119	0	0
1.62	-1.56570495371077	-1.437812621424048	-94.7053297546703	0	0.9399999998679526	0	44.99716355368063	-10.04113310337139	0	59.99860190297426	1.047173149800236	-5.008257129315387	0	0	44.99716355368063	-10.04113310337139	0	59.99860190297426	1.047173149800236	-5.008257129315387	0	0	0.548644411747837	-0.2974577512883368	6.191594089369134	18.14133840901797	-33.630831740764	16.88360865581491	40.5633811404835	1.062684277033931	0	0	0	-12.55707354146505	0	88.95825608429837	1.062684277033931	0	0
1.63	-1.121093635757419	-1.02170594608164	-94.70339576105047	0	0.9399999998679526	0	44.99716550370795	-10.0410340396352	0	59.99860273111048	1.04717316425394	-5.008231178933681	0	0	44.99716550370795	-10.0410340396352	0	59.99860273111048	1.04717316425394	-5.008231178933681	0	0	0.4767123939648953	-0.297421418278446	6.335109217086796	20.63572018316419	-35.58568773112329	18.06718922449872	40.50430986700636	1.06217637467812	0	0	0	-12.55793224220701	0	88.95875389234718	1.06217637467812	0	0
1.64	-0.7035090620653223	-0.6537044657270106	-94.39477828050984	0	0.9399999998679526	0	44.99716741892976	-10.04093694743954	0	59.99860354482284	1.0471731784559	-5.008205765595442	0	0	44.99716741892976	-10.04093694743954	0	59.99860354482284	1.0471731784559	-5.008205765595442	0	0	0.2743167069695493	-0.1668622524586025	6.271224169891206	23.44359323272265	-37.62356270720962	19.34167071556852	39.6018464051152	1.061677377122415	0	0	0	-12.55877607466855	0	88.95924297257835	1.061677377122415	0	0
